<?xml version="1.0" encoding="utf-8"?>
<!-- Generator: Adobe Illustrator 16.0.0, SVG Export Plug-In . SVG Version: 6.00 Build 0)  -->
<!DOCTYPE svg PUBLIC "-//W3C//DTD SVG 1.1//EN" "http://www.w3.org/Graphics/SVG/1.1/DTD/svg11.dtd">
<svg version="1.1" id="Layer_1" xmlns="http://www.w3.org/2000/svg" xmlns:xlink="http://www.w3.org/1999/xlink" x="0px" y="0px"
	 width="49.707px" height="48.482px" viewBox="0 0 49.707 48.482" enable-background="new 0 0 49.707 48.482" xml:space="preserve">
<path fill-rule="evenodd" clip-rule="evenodd" fill="#FFFFFF" d="M24.852,0C11.127,0,0,11.13,0,24.856
	c0,10.98,7.119,20.297,16.998,23.583c1.242,0.227,1.696-0.539,1.696-1.198c0-0.59-0.021-2.153-0.033-4.228
	c-6.914,1.502-8.374-3.332-8.374-3.332c-1.129-2.87-2.759-3.636-2.759-3.636c-2.257-1.541,0.171-1.511,0.171-1.511
	c2.494,0.176,3.808,2.562,3.808,2.562c2.216,3.796,5.816,2.7,7.231,2.065c0.227-1.605,0.869-2.703,1.58-3.323
	c-5.52-0.628-11.321-2.759-11.321-12.283c0-2.714,0.969-4.932,2.558-6.669c-0.256-0.629-1.109-3.156,0.243-6.577
	c0,0,2.086-0.671,6.835,2.548c1.982-0.552,4.108-0.828,6.223-0.838c2.111,0.01,4.235,0.286,6.223,0.838
	c4.745-3.219,6.828-2.548,6.828-2.548c1.355,3.421,0.502,5.948,0.247,6.577c1.592,1.737,2.554,3.955,2.554,6.669
	c0,9.548-5.811,11.648-11.348,12.263c0.893,0.77,1.687,2.286,1.687,4.604c0,3.323-0.03,6.003-0.03,6.818
	c0,0.665,0.447,1.438,1.71,1.195c9.867-3.293,16.981-12.603,16.981-23.58C49.707,11.13,38.579,0,24.852,0z"/>
</svg>
